<svg width="521" height="574" viewBox="0 0 521 574" fill="none" xmlns="http://www.w3.org/2000/svg">
<path d="M90.2088 125.75C100.641 129.447 111.092 133.308 121.486 137.425C121.734 137.399 121.908 137.463 122.174 137.601C122.348 137.665 122.448 137.82 122.622 137.885C126.289 139.318 129.964 140.834 133.639 142.35C133.97 142.314 134.301 142.279 134.649 142.407C137.17 143.299 139.608 144.2 142.129 145.093C153.35 146.792 164.832 142.393 175.411 138.924C187.203 135.074 199.459 132.421 211.774 131.092C224.015 129.855 236.389 129.85 248.566 131.113C260.825 132.368 272.978 134.965 284.686 138.857C297.87 143.255 311.196 148.968 321.644 158.234C323.867 160.239 326.356 162.382 327.658 165.152C328.869 167.848 328.096 170.758 325.593 172.359C322.933 174.059 319.444 174.269 316.321 174.773C313.033 175.294 309.727 175.651 306.512 176.081C293.38 177.581 280.141 178.095 266.887 177.695C253.715 177.287 240.612 175.957 227.576 173.705C213.77 171.287 200.261 167.756 186.921 163.458C185.445 162.952 184.061 162.519 182.585 162.013C189.253 165.701 195.701 169.661 202.092 173.878C202.999 174.528 203.905 175.179 204.894 175.82C205.216 175.702 205.564 175.831 205.848 176.133C205.948 176.289 206.048 176.444 206.24 176.673C207.395 177.297 208.475 178.011 209.556 178.726C216.865 182.927 224.027 187.309 231.041 191.874C235.936 193.84 240.895 195.633 246.058 196.988C253.633 198.998 261.311 200.415 269.036 201.493C284.744 203.707 300.64 204.569 316.468 206.353C333.223 208.204 349.698 211.332 365.668 216.76C381.474 222.205 396.435 229.903 409.522 240.382C421.694 250.127 432.187 262.132 439.451 275.983C441.237 279.365 442.876 282.93 444.267 286.522C445.54 289.794 447.013 293.376 446.651 296.991C446.536 298.25 446.155 299.372 445.509 300.357C445.527 300.521 445.37 300.621 445.297 300.712C444.715 301.523 443.951 302.188 443.003 302.706C442.929 302.797 442.856 302.888 442.69 302.906C442.138 303.215 441.495 303.451 440.843 303.604C437.498 304.381 434.077 303.669 430.821 302.939C414.367 299.227 398.741 292.349 384.075 284.286C369.143 276.086 354.987 266.554 340.776 257.278C325.666 247.434 310.271 238.037 294.524 229.259C280.829 221.673 266.913 214.361 253.015 207.213C271.056 220.982 287.769 236.39 302.731 253.401C314.249 266.377 324.689 280.217 334.199 294.74C334.538 294.786 334.804 294.924 335.014 295.317C335.123 295.555 335.232 295.792 335.341 296.03C338.92 298.97 342.268 302.101 345.689 305.141C349.943 308.922 354.115 312.713 358.369 316.494C366.878 324.057 375.321 331.794 383.756 339.448C392.09 346.947 400.351 354.537 408.316 362.491C415.898 369.988 423.506 377.731 429.715 386.457C432.573 390.472 435.384 394.825 436.973 399.476C438.054 402.519 438.636 406.365 437.376 409.411C437.494 409.731 437.347 409.913 437.108 410.022C436.691 410.815 436.184 411.535 435.493 412.108C432.601 414.749 428.645 414.51 425.171 413.305C420.999 411.843 417.339 408.912 413.888 406.374C396.54 393.612 381.914 377.396 369.413 359.953C367.925 357.786 366.446 355.7 364.958 353.533C368.806 362.846 372.258 372.368 374.966 381.971C375.646 384.392 376.242 386.822 376.848 389.334C381.223 395.015 385.304 401.06 389.21 407.041C393.299 413.169 397.158 419.487 400.696 425.924C404.224 432.278 407.366 438.924 410.021 445.705C412.667 452.404 414.935 459.476 416.12 466.582C416.622 469.688 416.717 473.669 414.386 476.082C412.284 478.304 409.199 478.388 406.56 477.176C403.83 475.891 401.745 473.621 399.835 471.416C397.641 468.909 395.604 466.302 393.723 463.594C386.044 452.865 380.224 440.772 376.517 428.117C372.811 415.463 371.117 402.092 371.948 388.865C372.018 387.195 372.18 385.597 372.333 383.918C372.171 383.187 372.008 382.456 371.846 381.725C371.692 381.077 372.135 380.53 372.622 380.394C367.918 367.016 362.818 353.847 356.918 341.013C355.595 338.828 354.364 336.716 353.041 334.53C354.719 340.003 356.066 345.512 357.164 351.048C359.507 362.685 360.71 374.612 360.83 386.572C360.95 398.533 359.987 410.527 358.005 422.382C356.973 428.314 355.758 434.099 354.212 439.92C352.554 446.252 350.648 452.61 348.028 458.547C345.269 464.748 341.739 470.783 336.719 475.399C332.767 479.069 326.94 483.189 321.193 481.066C315.179 478.804 314.446 471.234 313.861 465.809C313.213 459.809 312.814 453.782 312.745 447.72C312.599 435.513 313.462 423.363 314.921 411.315C316.371 399.186 318.409 387.075 320.456 375.048C322.494 362.937 324.605 350.736 326.221 338.588C327.846 326.523 328.957 314.346 329.067 302.195C329.078 299.2 329.089 296.206 328.935 293.229C328.9 292.9 329.039 292.636 329.186 292.453C322.029 281.918 314.421 271.846 306.178 262.092C292.378 245.788 276.958 230.739 260.284 217.238C260.768 217.851 261.178 218.555 261.671 219.25C264.104 221.649 266.463 224.138 268.739 226.636C277.762 236.639 285.881 247.57 292.814 259.127C299.756 270.768 305.593 283.026 310.153 295.838C312.433 302.243 314.382 308.685 316.01 315.244C317.664 322.05 319.005 329.057 319.346 336.087C320.109 350.14 316.95 365.032 307.226 375.644C303.705 379.433 297.188 384.127 292.089 380.27C290.808 379.244 289.978 377.754 289.405 376.319C288.723 374.647 288.132 373.047 287.616 371.357C286.408 367.912 285.365 364.449 284.488 360.968C280.805 346.981 279.005 332.624 277.535 318.232C276.057 303.757 275.084 289.311 272.944 274.908C270.84 260.833 267.562 246.719 261.718 233.63C257.522 224.188 252.039 215.218 245.027 207.576C244.844 207.43 244.752 207.357 244.569 207.21C242.089 205.149 239.527 203.098 236.899 201.219C236.533 200.926 236.415 200.606 236.462 200.269C234.245 199.094 232.193 197.902 230.05 196.637C229.793 196.581 229.537 196.526 229.271 196.388C228.923 196.26 228.731 196.031 228.613 195.711C227.358 194.932 226.195 194.226 224.94 193.447C227.252 196.274 229.333 199.292 231.341 202.401C238.312 213.539 242.901 225.849 246.921 238.303C250.94 250.758 254.73 263.403 257.123 276.282C259.371 288.595 260.14 301.151 258.046 313.516C257.023 319.53 255.403 325.442 252.904 330.951C250.756 335.839 247.338 341.363 241.163 340.699C235.997 340.092 232.085 335.608 229.153 331.684C225.912 327.211 223.369 322.247 221.47 317.047C217.646 306.401 216.496 294.968 216.612 283.647C216.752 270.993 218.571 258.408 219.546 245.747C220.492 233.588 220.75 221.255 217.958 209.333C215.456 198.544 210.64 188.005 202.527 180.233C200.57 178.366 198.465 176.68 196.13 175.186C195.947 175.039 195.846 174.884 195.746 174.729C190.066 171.683 184.404 168.802 178.659 165.929C170.532 161.9 162.266 158.136 153.927 154.463C162.966 162.301 170.734 171.524 177.012 181.656C186.126 196.387 192.095 212.955 194.361 230.089C194.905 234.354 195.201 238.646 195.332 242.955C195.397 245.11 195.297 247.283 195.288 249.529C195.188 251.701 195.171 253.865 194.557 255.927C194.017 257.897 193.147 259.904 191.444 261.168C189.741 262.433 187.492 262.51 185.576 261.802C183.651 261.012 182.069 259.519 180.734 258C179.116 256.179 177.563 254.185 176.102 252.264C164.126 236.594 155.153 218.521 149.845 199.554C144.538 180.587 142.621 158.177 126.904 144.241C125.979 143.426 124.973 142.62 123.975 141.896C115.68 138.634 107.302 135.38 98.9415 132.291C95.6323 131.069 92.4057 129.837 89.0964 128.614C87.1539 127.66 88.4671 125.107 90.2088 125.75ZM414.128 469.042C414.012 465.646 412.961 462.101 412.027 458.875C411.076 455.486 410.051 452.187 408.861 448.907C406.481 442.345 403.531 435.929 400.277 429.794C393.87 417.68 386.285 406.276 378.773 394.781C379.302 395.804 379.739 396.755 380.267 397.779C381.661 400.622 383.055 403.465 384.448 406.308C387.263 412.24 390.242 418.155 393.13 423.996C398.368 434.573 403.524 445.159 407.797 456.089C408.96 459.123 410.05 462.248 411.057 465.383C411.556 466.909 412.064 468.517 412.481 470.052C412.77 471.184 413.151 472.391 413.358 473.532C413.96 472.137 414.196 470.449 414.128 469.042ZM412.703 474.435C412.239 473.237 411.923 471.858 411.542 470.652C411.143 469.281 410.745 467.911 410.355 466.622C409.466 463.808 408.503 461.085 407.449 458.289C405.358 452.86 402.954 447.632 400.468 442.412C397.881 437.037 395.129 431.68 392.469 426.396C389.59 420.637 386.802 414.951 383.85 409.283C382.164 406.056 380.56 402.819 378.874 399.592C378.547 398.879 378.136 398.175 377.808 397.462C379.79 404.981 382.094 412.382 384.719 419.666C389.261 432.313 394.603 444.625 400.662 456.61C403.952 463.073 407.471 469.345 410.917 475.708C411.643 475.463 412.177 474.99 412.703 474.435ZM408.998 475.749C409.255 475.804 409.512 475.86 409.843 475.824C409.925 475.815 410.008 475.806 410.091 475.797C402.981 464.924 397.131 453.332 391.843 441.513C387.018 430.892 382.91 419.944 379.363 408.769C380.113 414.176 380.773 419.509 381.854 424.881C383.097 430.983 384.911 436.94 387.45 442.653C389.999 448.447 393.182 453.924 396.604 459.292C398.52 462.328 400.584 465.182 402.813 468.018C404.767 470.634 406.961 473.142 408.998 475.749ZM377.027 421.992C379.945 434.316 384.821 446.179 391.665 456.915C394.995 462.21 398.739 467.46 403.064 471.899C404.198 473.107 405.68 474.444 407.348 475.179C405.73 473.358 404.195 471.528 402.733 469.607C400.705 467.082 398.842 464.539 396.979 461.996C393.336 456.901 390.07 451.433 387.374 445.82C384.669 440.126 382.525 434.204 381.107 428.038C379.698 421.953 378.694 415.743 377.615 409.623C376.708 404.316 375.728 399.1 374.168 393.947C373.93 403.369 374.868 412.829 377.027 421.992ZM435.321 404.311C434.907 399.699 432.252 395.246 429.834 391.433C424.387 382.791 417.218 375.25 410.077 367.955C402.377 360.138 394.373 352.604 386.296 345.161C371.54 331.62 356.563 318.352 341.964 304.711C342.915 305.773 343.783 306.843 344.651 307.913C346.186 309.743 347.813 311.647 349.431 313.468C352.658 317.027 355.884 320.587 359.351 324.038C366.108 330.875 373.179 337.513 380.25 344.15C393.834 356.903 407.574 369.555 419.572 383.893C422.926 387.855 426.041 391.925 429.091 396.169C431.356 399.334 433.538 402.508 435.489 405.873C435.353 405.388 435.374 404.804 435.321 404.311ZM435.079 407.497C433.071 404.387 431.137 401.187 429.056 398.169C426.39 394.382 423.659 390.769 420.68 387.182C414.804 380 408.386 373.209 401.82 366.601C388.34 353.255 373.965 340.92 360.402 327.583C357.128 324.361 353.936 321.13 350.828 317.89C352.581 320.195 354.261 322.592 356.098 324.888C361.834 332.334 367.727 339.681 373.694 346.936C385.894 361.584 398.692 375.586 412.255 388.923C419.37 395.971 426.633 402.837 434.126 409.512C434.569 408.965 434.911 408.263 435.079 407.497ZM433.453 410.25C426.793 404.317 420.206 398.292 413.767 392.086C406.944 385.422 400.269 378.575 393.677 371.72C380.583 358.083 368.245 343.699 356.606 328.824C353.801 325.302 351.07 321.689 348.422 318.066C350.63 321.487 352.839 324.907 355.13 328.318C360.306 335.992 365.712 343.474 371.274 350.856C382.574 365.684 394.516 380.277 407.74 393.567C414.864 400.698 422.669 407.173 431.971 411.241C432.515 410.85 432.993 410.632 433.453 410.25ZM358.131 338.305C360.667 342.438 363.194 346.489 365.887 350.522C377.461 367.899 390.839 384.166 406.935 397.729C410.979 401.117 415.171 404.323 419.502 407.265C422.395 409.281 425.811 411.49 429.501 411.591C429.84 411.637 430.254 411.593 430.584 411.557C422.776 408.159 415.93 402.828 409.792 397.088C402.904 390.597 396.624 383.542 390.345 376.487C377.959 362.44 366.412 347.639 355.721 332.246C355.128 331.395 354.534 330.544 354.023 329.685C355.408 332.446 356.811 335.371 358.131 338.305ZM341.844 464.785C345.401 458.997 347.811 452.667 349.791 446.217C351.52 440.543 352.992 434.813 354.216 429.11C356.655 417.622 358.068 405.912 358.47 394.144C358.799 382.468 358.118 370.734 356.454 359.19C354.888 348.549 352.33 338.016 349.055 327.81C347.924 325.853 346.784 323.814 345.727 321.766C348.791 339.313 351.515 356.813 352.596 374.573C353.279 385.558 353.376 396.523 352.728 407.569C352.054 418.368 350.709 429.156 348.255 439.731C345.839 449.886 342.836 460.022 338.604 469.625C339.684 468.012 340.856 466.472 341.844 464.785ZM335.673 472.685C335.977 472.403 336.199 472.129 336.503 471.847C340.587 462.427 343.891 452.757 346.242 442.775C348.64 432.455 350.168 421.814 350.943 411.17C352.568 389.044 350.936 366.936 347.741 345.08C346.382 335.582 344.775 326.11 342.919 316.665C342.71 316.272 342.491 315.796 342.199 315.412C342.539 317.787 342.796 320.17 343.136 322.545C343.839 328.289 344.46 334.043 345.081 339.796C346.148 351.239 346.885 362.717 347.2 374.157C347.423 385.525 347.224 396.854 346.437 408.164C345.66 419.556 344.204 430.855 342.068 442.061C341 447.665 339.759 453.203 338.343 458.677C336.806 464.581 335.121 470.666 331.659 475.779C331.447 476.134 331.152 476.499 330.857 476.863C332.56 475.599 334.245 474.17 335.673 472.685ZM328.392 478.044C328.475 478.035 328.631 477.935 328.705 477.844C330.467 475.575 331.963 473.169 333.185 470.542C334.462 467.661 335.392 464.65 336.229 461.566C337.728 456.083 339.062 450.618 340.212 445.006C342.448 433.955 343.922 422.82 344.8 411.584C345.669 400.265 345.959 389.009 345.653 377.65C345.439 366.365 344.72 355.051 343.67 343.773C342.621 332.495 341.249 321.335 339.538 310.128C338.918 309.031 338.381 307.925 337.752 306.745C339.583 312.867 340.697 319.316 341.297 325.653C342.527 337.827 342.609 350.207 342.425 362.45C342.193 375.03 341.384 387.673 340.06 400.205C338.737 412.737 336.734 425.176 334.227 437.586C331.72 449.996 328.699 462.296 324.908 474.429C324.48 475.888 323.979 477.439 323.468 478.908C325.166 479.14 326.875 478.706 328.392 478.044ZM329.83 328.637C328.527 340.585 326.628 352.43 324.646 364.285C322.664 376.14 320.591 387.921 318.783 399.84C317.049 411.668 315.655 423.542 315.105 435.492C314.825 441.426 314.803 447.415 315.102 453.286C315.247 456.181 315.401 459.157 315.711 462.034C315.948 465.002 316.193 468.052 316.834 470.893C317.032 471.953 317.313 473.003 317.767 474.118C316.435 464.866 316.903 455.254 317.993 445.99C319.276 434.626 321.668 423.476 324.051 412.243C326.564 400.663 328.903 389.02 330.224 377.236C331.677 364.358 332.13 351.504 331.986 338.548C331.928 329.491 331.632 320.543 331.161 311.531C330.938 317.209 330.466 322.914 329.83 328.637ZM333.851 333.358C334.068 346.223 333.781 359.059 332.567 371.828C331.438 383.84 329.208 395.722 326.713 407.466C324.33 418.698 321.772 429.867 320.068 441.193C318.428 452.345 317.733 463.728 319.114 474.971C319.185 475.628 319.256 476.286 319.326 476.943C319.793 477.392 320.259 477.84 320.8 478.198C321.34 478.555 321.945 478.739 322.541 478.841C326.102 466.9 329.306 454.747 331.84 442.583C334.448 430.328 336.459 417.972 337.883 405.595C339.371 393.045 340.281 380.558 340.586 367.886C340.936 355.626 340.771 343.255 339.872 331.046C339.006 319.914 337.194 308.552 332.405 298.259C333.077 309.911 333.675 321.653 333.851 333.358ZM316.723 345.101C317.839 331.427 314.505 317.569 310.506 304.53C306.625 291.811 301.375 279.573 295.094 267.862C288.731 256.159 281.273 245.157 272.802 234.845C271.834 233.62 270.792 232.485 269.741 231.268C272.159 235.081 274.494 238.903 276.673 242.826C282.337 252.691 287.604 262.766 292.403 273.141C297.201 283.516 301.513 294.026 305.346 304.754C309.07 315.245 312.242 326.045 313.283 337.241C314.202 346.537 313.891 356.05 311.176 364.99C314.44 358.817 316.21 351.975 316.723 345.101ZM300.803 377.334C302.458 376.407 303.905 375.087 305.177 373.703C306.679 372.127 307.989 370.323 309.217 368.527C312.244 359.387 313.217 349.803 312.436 340.242C311.587 329.275 308.507 318.549 304.883 308.213C297.509 287.141 288.021 266.629 276.978 247.2C273.878 241.714 270.621 236.328 267.208 231.042C265.492 228.317 263.703 225.683 261.914 223.049C261.814 222.894 261.722 222.82 261.622 222.665C261.338 222.363 261.064 222.143 260.863 221.832C263.163 225.326 265.315 229.001 267.376 232.604C269.502 236.033 271.628 239.462 273.598 242.991C279.68 253.643 285.211 264.604 289.859 275.91C294.288 286.74 297.918 297.906 300.408 309.361C302.754 320.25 304.299 331.475 304.505 342.678C304.71 353.881 303.741 365.044 301.239 375.957C301.036 376.395 300.924 376.906 300.803 377.334ZM294.492 378.514C295.628 378.974 296.868 378.84 298.007 378.551C298.66 378.397 299.22 378.17 299.855 377.852C300.212 375.735 300.734 373.6 301.082 371.401C301.542 368.69 301.911 365.907 302.288 363.205C302.943 357.647 303.258 352.042 303.242 346.472C303.293 335.325 302.179 324.22 299.99 313.231C297.691 302.005 294.401 290.885 290.237 280.193C286.773 271.337 282.84 262.781 278.42 254.361C280.877 260.083 283.168 265.822 285.138 271.68C288.915 282.663 291.81 293.992 293.878 305.41C295.946 316.827 297.114 328.425 297.446 340.03C297.696 351.644 297.202 363.338 295.259 374.773C294.978 376.05 294.772 377.237 294.492 378.514C294.483 378.432 294.483 378.432 294.492 378.514ZM257.707 221.258C264.85 233.209 269.445 246.35 272.405 259.833C275.509 273.883 277.053 288.184 278.422 302.421C279.782 316.576 280.894 330.757 283.402 344.705C284.652 351.638 286.232 358.535 288.3 365.297C289.333 368.677 290.45 372.049 291.805 375.312C292.242 376.263 292.771 377.286 293.668 377.855C294.166 372.396 294.829 366.92 295.162 361.48C295.542 355.701 295.674 349.95 295.632 344.134C295.473 332.593 294.571 321.133 292.677 309.78C290.866 298.418 288.146 287.153 284.625 276.225C281.105 265.297 276.767 254.54 271.564 244.292C267.099 235.461 262 226.948 256.358 218.826C256.786 219.694 257.288 220.472 257.707 221.258ZM362.844 218.478C355.042 215.911 347.036 213.781 338.927 212.245C354.363 218.146 369.059 225.707 382.683 234.963C398.743 245.868 413.363 258.925 425.901 273.62C429.438 277.728 432.828 282.019 436.052 286.327C437.723 288.641 439.394 290.956 440.983 293.279C434.316 281.858 426.553 271.138 417.714 261.283C407.558 250.073 396.103 240 383.707 231.277C380.182 228.83 376.583 226.475 372.919 224.292C371.133 223.238 369.256 222.11 367.387 221.064C365.876 220.23 364.208 219.495 362.844 218.478ZM443.941 295.121C443.633 291.496 441.994 287.931 440.63 284.586C434.671 270.429 425.291 257.887 413.975 247.551C402.009 236.619 387.895 228.247 372.854 222.137C372.332 221.944 371.809 221.751 371.278 221.476C371.635 221.687 372.075 221.889 372.441 222.182C375.747 224.153 378.897 226.225 382.056 228.378C388.374 232.686 394.479 237.348 400.206 242.385C411.652 252.375 421.918 263.822 430.775 276.17C435.588 282.802 439.922 289.651 443.788 296.801C443.9 296.29 443.92 295.706 443.941 295.121ZM443.313 298.598C441.021 295.187 438.813 291.767 436.448 288.446C433.69 284.587 430.776 280.827 427.706 277.167C421.464 269.692 414.771 262.681 407.544 256.144C393.355 243.207 377.36 232.128 360.273 223.329C350.626 218.383 340.636 214.139 330.322 210.762C328.368 210.474 326.496 210.177 324.542 209.889C309.1 207.814 293.452 206.924 277.955 205.104C272.871 204.489 267.697 203.8 262.661 202.847C267.31 204.091 271.959 205.336 276.618 206.662C292.06 211.066 307.363 215.734 322.424 221.26C337.394 226.712 352.196 232.931 366.351 240.134C380.332 247.273 393.75 255.387 406.291 264.677C418.832 273.967 430.414 284.441 440.467 296.245C441.326 297.233 442.102 298.23 442.879 299.227C443.109 299.036 443.248 298.771 443.313 298.598ZM442.288 299.956C432.315 288.892 421.587 278.575 409.816 269.452C397.496 259.889 384.135 251.519 370.384 244.189C356.55 236.868 342.153 230.522 327.422 224.961C312.343 219.271 297.013 214.356 281.571 209.952C270.87 206.867 260.196 204.027 249.448 201.279C258.558 205.119 267.88 208.603 277.185 211.922C291.184 216.898 305.33 221.69 319.013 227.614C333.044 233.667 346.529 240.859 359.672 248.754C372.907 256.722 385.864 265.218 398.895 273.624C412.017 282.102 425.213 290.49 438.354 299.133C439.251 299.702 440.066 300.279 440.881 300.856C441.267 300.565 441.828 300.338 442.288 299.956ZM439.576 301.163C427.13 293.526 414.896 285.534 402.671 277.623C389.649 269.3 376.783 260.876 363.622 252.818C350.553 244.832 337.189 237.211 323.066 231.085C309.466 225.152 295.476 220.259 281.56 215.275C273.649 212.47 265.737 209.665 257.882 206.605C259.559 207.422 261.162 208.33 262.839 209.147C267.943 211.506 273.047 213.866 278.077 216.316C291.143 222.722 304.006 229.566 316.721 236.592C329.61 243.683 342.342 250.873 355.075 258.064C367.807 265.254 380.622 272.436 393.494 279.362C406.365 286.288 419.458 292.94 432.532 299.429C433.769 300.044 434.915 300.585 436.152 301.2C436.913 301.284 437.666 301.286 438.493 301.197C438.915 301.235 439.245 301.199 439.576 301.163ZM371.776 274.139C385.825 282.684 400.391 290.591 416.031 296.054C419.945 297.461 423.916 298.612 427.96 299.673C429.941 300.207 432.004 300.733 434.133 301.085C421.752 295.603 409.731 289.583 397.766 283.308C384.83 276.555 372.106 269.447 359.373 262.256C346.558 255.075 333.825 247.884 321.019 240.785C315.779 237.941 310.539 235.097 305.225 232.345C313.432 237.113 321.565 241.973 329.634 247.006C343.718 255.88 357.452 265.374 371.776 274.139ZM245.998 336.685C246.688 336.111 247.287 335.465 247.878 334.736C248.497 333.505 249.026 332.201 249.462 330.823C250.427 328.141 251.044 325.331 251.486 322.456C252.371 316.707 252.319 310.808 251.947 305.028C251.254 293.961 249.652 282.992 247.39 272.094C245.144 261.361 242.073 250.717 238.367 240.39C234.652 229.982 230.293 219.809 225.143 210.054C224.824 209.424 224.506 208.793 224.113 208.253C228.347 217.275 231.947 226.615 234.895 236.109C238.223 246.808 240.569 257.697 242.271 268.822C243.964 279.864 244.665 291.014 244.623 302.243C244.571 313.391 243.684 324.545 241.779 335.56C241.611 336.326 241.452 337.175 241.284 337.942C242.981 338.174 244.534 337.84 245.998 336.685ZM231.972 331.463C232.448 331.994 232.84 332.533 233.398 333.055C235.291 335.096 237.862 337.23 240.687 337.84C241.33 332.948 242.055 328.047 242.607 323.082C243.179 317.532 243.493 311.927 243.643 306.34C243.869 295.257 243.167 284.107 241.722 273.038C240.286 262.051 237.94 251.163 234.777 240.445C231.706 229.801 227.742 219.419 223.145 209.355C222.498 208.012 221.852 206.668 221.205 205.324C221.432 205.882 221.66 206.439 221.896 207.079C223.606 211.301 224.994 215.642 226.051 220.017C228.367 229.08 229.617 238.341 229.958 247.7C230.37 257.717 229.946 267.74 229.11 277.808C228.65 282.847 228.107 287.894 227.482 292.951C226.922 297.834 226.28 302.726 226.224 307.637C226.122 312.887 226.607 318.156 228.231 323.136C228.981 326.215 230.357 328.893 231.972 331.463ZM222.455 231.631C222.315 244.284 220.652 256.77 219.585 269.357C218.643 280.767 218.379 292.27 220.355 303.614C221.614 310.629 223.726 317.802 227.172 324.165C225.955 320.638 225.308 316.966 224.991 313.258C224.267 303.442 226.048 293.604 227.003 283.856C228.969 264.104 229.559 244.002 225.281 224.507C224.153 219.474 222.694 214.476 220.922 209.678C220.568 208.719 220.122 207.686 219.685 206.735C221.729 214.83 222.468 223.231 222.455 231.631ZM224.892 206.174C230.142 216.084 234.748 226.23 238.638 236.703C242.527 247.175 245.607 257.902 248.036 268.782C250.381 279.671 252.074 290.713 252.941 301.845C253.58 310.09 253.85 318.792 251.808 326.994C252.531 325.17 253.172 323.355 253.72 321.467C257.06 309.798 257.492 297.529 256.114 285.538C254.657 272.807 251.308 260.363 247.646 248.12C243.974 235.794 240.047 223.413 234.362 211.804C230.29 203.512 225.088 195.593 218.678 188.884C216.334 187.308 214.082 185.804 211.812 184.137C216.521 191.362 220.9 198.622 224.892 206.174ZM326.014 167.74C326.046 166.489 325.335 165.319 324.558 164.322C324.357 164.011 324.074 163.709 323.799 163.489C322.875 162.674 321.951 161.859 320.954 161.135C318.583 159.313 315.982 157.681 313.316 156.222C308.25 153.443 302.907 151.192 297.517 149.28C286.745 145.536 275.371 143.188 263.926 142.51C252.225 141.777 240.618 142.697 228.938 143.708C216.514 144.799 204.081 145.808 191.656 146.899C181.711 147.723 171.785 148.711 161.766 149.626C167.363 150.352 172.85 150.841 178.495 151.23C190.122 152.054 201.844 152.202 213.483 152.36C225.205 152.509 236.927 152.658 248.62 153.308C260.569 154.015 272.498 155.305 284.211 157.7C296.86 160.243 309.359 163.717 321.71 167.373C323.095 167.806 324.397 168.247 325.707 168.771C325.92 168.416 325.967 168.078 326.014 167.74ZM217.642 169.206C230.309 171.914 243.135 173.773 256.112 174.701C269.006 175.638 282.05 175.644 295.006 174.828C299.321 174.528 303.619 174.065 307.917 173.601C303.427 173.836 298.911 173.824 294.451 173.557C282.492 172.769 270.705 170.465 258.936 168.326C252.79 167.16 246.653 166.076 240.468 165.33C234.284 164.584 228.053 164.175 221.83 163.849C211.321 163.32 200.765 163.128 190.351 161.924C199.346 164.695 208.405 167.293 217.642 169.206ZM160.308 151.612C160.465 151.512 160.63 151.494 160.887 151.55C161.84 151.863 162.693 152.02 163.656 152.415C164.535 152.819 165.498 153.214 166.386 153.7C166.561 153.765 166.735 153.829 166.826 153.902C170.135 155.125 173.518 156.257 176.901 157.388C177.424 157.581 177.947 157.774 178.46 157.885C179.487 158.107 180.597 158.32 181.625 158.542C193.651 160.736 205.822 161.169 217.927 161.775C223.976 162.037 229.95 162.39 235.952 162.99C242.127 163.654 248.164 164.583 254.218 165.675C265.988 167.815 277.728 170.456 289.656 171.746C300.567 172.897 311.675 172.78 322.452 170.37C323.352 170.189 324.243 169.927 325.135 169.664C325.282 169.482 325.43 169.3 325.577 169.118C322.522 168.699 319.487 167.696 316.562 166.931C313.462 166.101 310.363 165.272 307.263 164.442C300.981 162.792 294.626 161.232 288.214 159.929C276.335 157.552 264.371 155.933 252.248 155.162C240.546 154.429 228.733 154.207 217.02 154.14C205.298 153.992 193.585 153.925 181.884 153.192C174.395 152.753 166.888 152.149 159.42 151.126C159.786 151.419 160.042 151.475 160.308 151.612ZM187.585 145.592C200.184 144.566 212.773 143.457 225.363 142.348C237.209 141.319 249.054 140.29 260.894 140.759C272.321 141.272 283.733 143.2 294.57 146.77C300.805 148.758 307.176 151.231 312.956 154.432C311.427 153.433 309.815 152.443 308.212 151.535C302.148 148.032 295.659 145.239 289.041 142.794C277.72 138.611 265.87 135.732 253.897 134.03C241.924 132.329 229.754 131.896 217.716 132.696C205.596 133.505 193.617 135.629 182.02 138.959C171.479 142.009 160.96 146.802 149.887 147.249C150.327 147.451 150.684 147.662 151.133 147.946C151.904 148.112 152.748 148.187 153.518 148.354C165.033 147.361 176.318 146.559 187.585 145.592ZM192.131 254.359C192.579 252.315 192.596 250.152 192.614 247.988C192.749 243.816 192.636 239.671 192.266 235.47C190.871 218.658 185.829 202.157 177.632 187.409C173.584 180.113 168.828 173.226 163.372 166.83C158.491 161.121 153.094 156.049 147.237 151.36C145.569 150.625 143.91 149.972 142.242 149.238C142.845 150.171 143.447 151.103 144.049 152.036C147.323 155.258 150.533 158.654 153.585 162.149C159.782 169.213 165.445 176.751 170.482 184.688C179.845 199.393 187.623 215.683 190.651 232.9C191.479 237.467 191.893 242.079 191.884 246.653C191.853 250.232 191.664 253.911 190.88 257.488C191.609 256.494 191.989 255.372 192.131 254.359ZM187.172 259.551C187.851 259.644 188.513 259.572 189.23 259.246C189.469 259.137 189.625 259.037 189.782 258.937C190.392 255.295 190.92 251.663 190.934 247.92C191.004 243.921 190.735 239.876 190.144 235.948C188.927 227.765 186.469 219.715 183.304 212.074C176.382 195.194 166.399 179.392 154.528 165.457C152.425 163.023 150.332 160.671 148.165 158.41C149.588 160.751 151.011 163.092 152.435 165.433C156.63 172.547 160.439 179.952 163.918 187.392C171.058 202.42 176.846 218.093 181.338 234.155C182.579 238.677 183.737 243.208 184.821 247.831C185.317 250.106 185.813 252.38 186.319 254.737C186.652 256.281 186.995 257.907 187.172 259.551ZM183.266 255.898C183.887 256.995 184.681 258.157 185.614 259.054C185.797 259.2 186.054 259.256 186.228 259.32C185.451 255.995 184.922 252.643 184.145 249.317C183.215 245.344 182.275 241.287 181.18 237.331C178.979 229.337 176.457 221.461 173.613 213.702C170.778 206.026 167.612 198.385 164.134 190.944C161.311 184.93 158.332 179.015 155.113 173.209C156.761 176.856 158.252 180.603 159.661 184.359C165.638 201.009 168.858 218.456 174.422 235.15C176.02 239.884 177.774 244.517 179.767 249.041C180.851 251.336 181.944 253.712 183.266 255.898ZM140.626 159.057C144.952 168.153 147.109 178.064 149.339 187.885C151.542 197.458 154.233 206.896 157.98 216.054C161.618 224.974 166.13 233.467 171.424 241.461C174.034 245.503 176.883 249.436 179.88 253.187C180.364 253.8 181.041 254.641 181.717 255.483C181.206 254.623 180.778 253.755 180.358 252.969C178.436 249.102 176.744 245.044 175.217 240.968C172.046 232.497 169.609 223.863 167.246 215.137C162.656 198.172 158.362 180.841 149.58 165.325C145.449 158.038 140.38 151.351 134.012 145.802C132.958 145.334 131.821 144.874 130.776 144.488C134.91 148.699 138.131 153.756 140.626 159.057Z" fill="white"/>
</svg>
