<svg width="96" height="94" viewBox="0 0 96 94" fill="none" xmlns="http://www.w3.org/2000/svg">
<g clip-path="url(#clip0_2_9)">
<path d="M38.1243 78.6456C37.9918 77.1505 37.8787 75.6438 37.8002 74.1297C37.7829 74.1007 37.781 74.0756 37.783 74.035C37.7811 74.0099 37.7946 73.9888 37.7927 73.9637C37.7628 73.4306 37.7424 72.8918 37.7221 72.3531C37.699 72.3143 37.676 72.2755 37.6722 72.2253C37.6401 71.8641 37.6136 71.5125 37.5815 71.1513C37.1583 69.6717 35.9682 68.5036 34.9436 67.3946C33.8037 66.1574 32.7853 64.7955 31.9269 63.3516C31.0839 61.9117 30.3854 60.3859 29.8545 58.8128C29.3178 57.2301 28.9526 55.5848 28.7723 53.9214C28.5711 52.0474 28.5241 50.0817 29.0777 48.2705C29.1996 47.8833 29.3235 47.4555 29.5916 47.1386C29.8559 46.8373 30.2584 46.7684 30.597 46.9869C30.9567 47.2189 31.1794 47.6374 31.4176 47.9942C31.6673 48.3703 31.8978 48.7579 32.1321 49.1301C33.0578 50.6652 33.8679 52.269 34.5662 53.9261C35.2587 55.5736 35.8337 57.2647 36.2912 58.9994C36.7716 60.8385 37.0979 62.7037 37.3203 64.5913C37.3411 64.8019 37.3658 64.997 37.3867 65.2076C37.4653 64.1772 37.5902 63.1586 37.7497 62.1326C37.7788 61.9841 37.8079 61.8356 37.8312 61.6775C37.7986 61.6444 37.7948 61.5942 37.8161 61.5422C37.8296 61.5211 37.8431 61.4999 37.8605 61.4634C37.8723 61.2858 37.8995 61.1123 37.9268 60.9387C38.0325 59.8003 38.1691 58.6698 38.3364 57.5473C38.3029 56.8328 38.2443 56.12 38.1203 55.4068C37.9409 54.3592 37.6826 53.3324 37.3799 52.3188C36.767 50.2568 35.9768 48.2477 35.3042 46.1949C34.5875 44.0241 34.0441 41.8159 33.8127 39.5401C33.5929 37.2837 33.6985 35.0043 34.2527 32.7993C34.7681 30.7485 35.6569 28.7773 36.9554 27.1003C37.2719 26.6892 37.6191 26.286 37.9836 25.9119C38.3153 25.5704 38.6741 25.1866 39.1403 25.0275C39.3021 24.9706 39.462 24.9543 39.6198 24.9785C39.6391 24.967 39.6603 24.9806 39.6757 24.9846C39.8085 25.0106 39.9336 25.0674 40.0509 25.155C40.0663 25.159 40.0817 25.1629 40.0932 25.1823C40.1624 25.2329 40.2278 25.299 40.2835 25.3708C40.5679 25.7395 40.6731 26.2016 40.7668 26.6443C41.2369 28.883 41.2699 31.198 41.1027 33.4615C40.9335 35.7656 40.5563 38.049 40.2139 40.3249C39.8519 42.7435 39.5612 45.1723 39.3668 47.6094C39.2036 49.7262 39.0867 51.8549 38.989 53.9722C39.6696 50.9706 40.6273 48.0404 41.8814 45.2356C42.8321 43.0833 43.9502 41.0152 45.2049 39.0232C45.1915 38.9787 45.1935 38.9382 45.2302 38.8902C45.2533 38.8633 45.2765 38.8364 45.2996 38.8095C45.4604 38.2024 45.6577 37.6129 45.8396 37.0195C46.0661 36.2815 46.2983 35.5533 46.5247 34.8153C46.9776 33.3394 47.4555 31.8617 47.9238 30.3898C48.3786 28.939 48.8488 27.4921 49.3805 26.0611C49.8775 24.7033 50.4034 23.3282 51.1294 22.0703C51.4634 21.4913 51.8417 20.8992 52.3257 20.4409C52.6401 20.136 53.0815 19.8473 53.5282 19.8309C53.561 19.7983 53.5918 19.8062 53.6187 19.8295C53.74 19.8361 53.8574 19.8581 53.9671 19.911C54.4559 20.1188 54.6496 20.6201 54.6969 21.1165C54.7518 21.7135 54.5968 22.3302 54.4785 22.899C53.8829 25.7582 52.7079 28.4767 51.2617 31.0022C51.0783 31.308 50.9045 31.608 50.7211 31.9138C51.6527 30.914 52.6324 29.9512 53.6639 29.0756C53.9242 28.8552 54.1903 28.6446 54.466 28.4282C54.9198 27.5682 55.4352 26.724 55.9526 25.9049C56.4776 25.055 57.0393 24.2226 57.6336 23.4234C58.2183 22.6298 58.8607 21.8675 59.5472 21.1576C60.2242 20.4535 60.9685 19.7749 61.7781 19.228C62.1328 18.9909 62.6184 18.7546 63.0475 18.9061C63.4401 19.0399 63.6244 19.4156 63.6238 19.8095C63.6193 20.2187 63.4569 20.6038 63.2927 20.9638C63.1072 21.3757 62.9005 21.774 62.6727 22.1587C61.7826 23.7109 60.6193 25.1108 59.2677 26.2816C57.9161 27.4525 56.3626 28.4154 54.6845 29.059C54.4745 29.1445 54.2683 29.2146 54.0525 29.2904C53.9716 29.3517 53.8906 29.413 53.8096 29.4742C53.7383 29.5297 53.6459 29.506 53.6017 29.4535C52.2171 30.7883 50.8806 32.16 49.6306 33.6114C49.4356 33.8978 49.2446 34.1688 49.0496 34.4552C49.63 33.9396 50.2335 33.4628 50.8542 33.0151C52.1573 32.0698 53.5604 31.2488 55.0287 30.5594C56.497 29.87 58.0306 29.3124 59.6044 28.8882C60.3942 28.681 61.1763 28.5045 61.9814 28.3669C62.8558 28.2143 63.7475 28.0907 64.6275 28.079C65.5479 28.0695 66.4912 28.1645 67.3437 28.5233C68.0191 28.8038 68.8559 29.2899 68.9182 30.1186C68.9784 30.9877 68.0861 31.5051 67.4501 31.8833C66.7466 32.3015 66.0259 32.6907 65.2821 33.0411C63.7848 33.7476 62.2377 34.3264 60.6696 34.826C59.0918 35.3312 57.4833 35.7629 55.8844 36.1888C54.276 36.6205 52.6521 37.0482 51.0628 37.5341C49.4831 38.0142 47.9187 38.5639 46.4138 39.2357C46.0439 39.4032 45.6739 39.5707 45.3155 39.7576C45.2769 39.7805 45.2365 39.7783 45.2057 39.7704C44.3099 41.2473 43.4969 42.7537 42.7589 44.3204C41.5263 46.9419 40.54 49.6924 39.8154 52.5103C39.8637 52.416 39.9274 52.3257 39.9853 52.2256C40.1439 51.7904 40.3179 51.359 40.4976 50.9374C41.2223 49.2605 42.1125 47.6427 43.1469 46.1358C44.191 44.6231 45.3736 43.2118 46.6965 41.9269C47.358 41.2844 48.0425 40.6807 48.7597 40.11C49.5058 39.5222 50.2942 38.9616 51.1421 38.5231C52.8322 37.6363 54.847 37.186 56.7041 37.7869C57.37 38.0074 58.3165 38.5464 58.1284 39.3928C58.0742 39.6086 57.9372 39.795 57.7925 39.9466C57.6247 40.125 57.4608 40.2881 57.2815 40.4472C56.9247 40.7904 56.5564 41.1143 56.1766 41.4188C54.6593 42.6619 52.9902 43.6937 51.298 44.6866C49.5962 45.6853 47.8695 46.6201 46.2138 47.6963C44.5966 48.7496 43.0408 49.95 41.7562 51.4089C40.8283 52.4589 40.0312 53.6411 39.4843 54.9368C39.4765 54.9677 39.4727 54.9831 39.4649 55.0139C39.3506 55.436 39.2421 55.8678 39.1587 56.2977C39.1432 56.3594 39.1104 56.392 39.0661 56.4053C39.0463 56.7449 39.015 57.0652 38.9798 57.4009C38.9874 57.4357 38.9951 57.4705 38.9931 57.511C38.9969 57.5612 38.9795 57.5978 38.9467 57.6304C38.9213 57.8291 38.8999 58.0124 38.8745 58.2111C39.0928 57.7665 39.3477 57.3396 39.6179 56.9166C40.5984 55.4287 41.8577 54.1684 43.167 52.9703C44.4763 51.7721 45.8222 50.5916 47.2756 49.5701C48.6674 48.5983 50.1725 47.7953 51.8156 47.3561C52.6151 47.1432 53.4356 47.0095 54.2558 47.0071C54.9798 46.9963 55.8539 47.1062 56.1202 47.9053C56.3368 48.5766 56.0044 49.312 55.6858 49.8949C55.317 50.547 54.8482 51.1405 54.314 51.668C53.2167 52.7401 51.8714 53.5267 50.4687 54.1509C48.9002 54.8473 47.2454 55.3328 45.629 55.9266C44.0761 56.4957 42.5405 57.1595 41.2276 58.1761C40.0381 59.0932 39.0099 60.2816 38.509 61.7205C38.389 62.0672 38.2999 62.4219 38.2473 62.7941C38.2396 62.825 38.2261 62.8461 38.2126 62.8673C38.1573 63.7396 38.1213 64.6004 38.091 65.4709C38.0525 66.7004 38.0544 67.9322 38.0717 69.1679C38.5286 67.6109 39.228 66.1327 40.1235 64.7871C41.4263 62.8321 43.133 61.1616 45.1183 59.9158C45.6136 59.6081 46.1262 59.3296 46.6504 59.0704C46.9124 58.9408 47.186 58.8306 47.4635 58.705C47.7371 58.5948 48.0049 58.4749 48.2938 58.4343C48.5673 58.3898 48.8639 58.384 49.1159 58.5227C49.3679 58.6614 49.5042 58.9345 49.5249 59.2107C49.5361 59.4926 49.4413 59.772 49.3292 60.0222C49.1959 60.3245 49.0375 60.6285 48.883 60.9171C47.6258 63.2778 45.903 65.4038 43.8631 67.1281C41.8232 68.8524 39.1674 70.3527 38.3352 73.0772C38.2868 73.2371 38.2442 73.4067 38.2112 73.5706C38.2767 74.7777 38.3479 75.9944 38.4385 77.1997C38.4743 77.6768 38.5044 78.1442 38.5402 78.6213C38.5321 78.9147 38.1431 78.8967 38.1243 78.6456ZM62.1938 19.3349C61.7815 19.5408 61.4035 19.8704 61.0584 20.1674C60.694 20.4759 60.345 20.7883 60.0075 21.1201C59.3325 21.7837 58.7075 22.5094 58.1345 23.2567C57.0019 24.7302 56.0232 26.3088 55.0291 27.8836C55.1255 27.7606 55.2181 27.6531 55.3146 27.5302C55.5866 27.198 55.8586 26.8657 56.1307 26.5335C56.7036 25.8518 57.265 25.1508 57.8226 24.4652C58.8316 23.2226 59.8463 21.9898 60.9534 20.8463C61.2619 20.5317 61.5859 20.221 61.9157 19.92C62.0757 19.7724 62.2454 19.6191 62.4112 19.4811C62.5346 19.3816 62.6619 19.2665 62.791 19.1766C62.585 19.1811 62.3634 19.2472 62.1938 19.3349ZM62.9392 19.2066C62.8177 19.3313 62.6654 19.448 62.5382 19.563C62.3916 19.6895 62.2451 19.816 62.1082 19.9367C61.8112 20.2051 61.5297 20.4774 61.2442 20.7652C60.6927 21.3292 60.1834 21.9205 59.6799 22.5215C59.1629 23.1437 58.6574 23.7852 58.1558 24.4114C57.6079 25.0912 57.0638 25.7557 56.5313 26.4396C56.2284 26.8295 55.9197 27.2098 55.6168 27.5997C55.5473 27.6803 55.4837 27.7707 55.4142 27.8513C56.2298 27.1828 57.0126 26.4813 57.7628 25.7467C59.0664 24.4733 60.2836 23.1201 61.4199 21.6968C62.0315 20.9266 62.6066 20.1388 63.197 19.355C63.1259 19.2792 63.0374 19.24 62.9392 19.2066ZM63.3102 19.5893C63.3026 19.5545 63.295 19.5197 63.2719 19.4809C63.2661 19.4712 63.2604 19.4615 63.2546 19.4519C62.3146 20.942 61.2149 22.3172 60.0556 23.636C59.0177 24.8301 57.8992 25.9542 56.721 27.0219C57.3455 26.6244 57.9661 26.2423 58.5676 25.806C59.25 25.3085 59.8824 24.7488 60.4438 24.1134C61.0147 23.4723 61.5107 22.7709 61.9797 22.0461C62.2461 21.6385 62.4816 21.223 62.7057 20.7881C62.9181 20.3995 63.1036 19.9876 63.3102 19.5893ZM58.4836 26.5642C59.8389 25.5092 61.027 24.2389 61.9651 22.7893C62.4302 22.0799 62.8666 21.322 63.1701 20.5382C63.2552 20.3303 63.3364 20.0721 63.333 19.825C63.1996 20.1272 63.0606 20.4198 62.9061 20.7084C62.709 21.1009 62.5005 21.4741 62.292 21.8473C61.8691 22.584 61.3789 23.2951 60.8388 23.9442C60.289 24.5989 59.6796 25.1973 58.999 25.72C58.3281 26.2369 57.6188 26.7111 56.9249 27.1893C56.3215 27.6004 55.7336 28.0156 55.186 28.4985C56.3613 27.9965 57.4753 27.3473 58.4836 26.5642ZM53.0152 20.372C52.4698 20.6832 52.0703 21.2617 51.7364 21.775C50.9778 22.9342 50.452 24.2436 49.9551 25.5359C49.4254 26.9263 48.9476 28.3384 48.4851 29.7544C47.6473 32.3379 46.8557 34.9333 45.9968 37.5032C46.0741 37.326 46.1571 37.1586 46.2402 36.9912C46.3793 36.6986 46.5223 36.3907 46.6556 36.0884C46.9126 35.4897 47.1697 34.8909 47.3998 34.2688C47.8619 33.0497 48.2817 31.8034 48.7015 30.557C49.5082 28.1625 50.2937 25.7543 51.3852 23.4659C51.6847 22.8288 52.011 22.215 52.3624 21.5995C52.625 21.1417 52.8934 20.6936 53.1983 20.2631C53.1462 20.3072 53.073 20.3376 53.0152 20.372ZM53.4217 20.2221C53.1515 20.6451 52.8658 21.0641 52.611 21.4911C52.2944 22.0334 52.0028 22.5741 51.7284 23.1437C51.1741 24.2734 50.6985 25.448 50.2538 26.6305C49.3681 29.0458 48.6576 31.5143 47.7777 33.9392C47.565 34.5247 47.3465 35.1006 47.1222 35.6667C47.3076 35.3204 47.5084 34.9781 47.688 34.6221C48.2829 33.4946 48.8565 32.3534 49.4148 31.2084C50.5333 28.8776 51.5383 26.5095 52.4182 24.0846C52.8862 22.8095 53.3234 21.5266 53.724 20.226C53.6316 20.2022 53.5257 20.1996 53.4217 20.2221ZM53.853 20.2674C53.4969 21.4234 53.1253 22.5755 52.723 23.7197C52.286 24.937 51.8181 26.1464 51.3445 27.3461C50.4011 29.7301 49.323 32.063 48.1448 34.3374C47.8686 34.8819 47.577 35.4226 47.2797 35.9535C47.5769 35.4882 47.8742 35.0229 48.1657 34.5479C48.8201 33.4768 49.438 32.3881 50.0347 31.2857C51.2262 29.0559 52.3524 26.76 53.2457 24.3795C53.7234 23.0988 54.0817 21.7709 54.0588 20.3942C53.9799 20.3493 53.9261 20.3026 53.853 20.2674ZM49.2281 33.6146C49.5948 33.0687 49.9519 32.5285 50.2974 31.9689C51.7877 29.5615 53.0395 26.9942 53.8044 24.2441C53.9941 23.5542 54.1531 22.8564 54.2717 22.1563C54.3571 21.6858 54.4369 21.14 54.2413 20.6792C54.2279 20.6347 54.1991 20.5863 54.176 20.5475C54.1973 21.7021 53.9259 22.8472 53.5642 23.9279C53.1521 25.1434 52.6362 26.3158 52.1202 27.4882C51.0864 29.8079 49.9122 32.0668 48.6167 34.2535C48.5453 34.3747 48.4739 34.4959 48.3967 34.6074C48.659 34.2809 48.9407 33.9429 49.2281 33.6146ZM65.7456 28.4898C64.8311 28.3777 63.9145 28.4374 63.0074 28.557C62.21 28.6638 61.4203 28.8054 60.6479 28.9761C59.0935 29.3231 57.5697 29.8094 56.0957 30.4234C54.6371 31.0414 53.2284 31.7872 51.8984 32.6435C50.6745 33.4367 49.5196 34.3463 48.4456 35.3259C48.2681 35.5757 48.0809 35.8312 47.8879 36.0771C49.8791 34.7096 51.8838 33.3867 54.0132 32.2517C55.3295 31.5479 56.6764 30.9176 58.0752 30.3745C59.445 29.8486 60.8514 29.406 62.294 29.1122C63.6828 28.8374 65.1022 28.6362 66.5252 28.6165C66.2653 28.5742 66.0093 28.5166 65.7456 28.4898ZM67.0679 28.8053C67.0159 28.7837 66.9697 28.7719 66.9178 28.7503C65.5256 28.7779 64.1467 28.9157 62.783 29.1887C61.375 29.475 59.9764 29.8868 58.6201 30.3916C55.7995 31.439 53.165 32.8872 50.6497 34.5139C49.5549 35.2172 48.4773 35.9497 47.4171 36.7112C47.3805 36.7592 47.3342 36.8129 47.3033 36.8707C47.577 36.6948 47.8564 36.5287 48.1301 36.3528C48.7989 35.9421 49.4735 35.541 50.148 35.14C51.4991 34.363 52.8731 33.6247 54.2663 32.9407C55.6557 32.2721 57.0642 31.6576 58.5034 31.1167C59.9523 30.5701 61.4279 30.1124 62.9304 29.7438C63.6816 29.5595 64.4348 29.4002 65.1898 29.2661C66.0045 29.1228 66.85 28.9873 67.6759 29.1259C67.7317 29.132 67.7933 29.1479 67.8549 29.1637C67.6028 29.025 67.3315 28.8978 67.0679 28.8053ZM68.1395 29.4011C68.1337 29.3914 68.1125 29.3778 68.0972 29.3738C67.718 29.2845 67.3368 29.2357 66.944 29.2331C66.5165 29.2381 66.0928 29.2932 65.6652 29.3638C64.9045 29.4882 64.1552 29.632 63.3982 29.8067C61.9092 30.1542 60.4528 30.6004 59.0175 31.1258C57.5725 31.657 56.1679 32.2561 54.7843 32.9344C53.4046 33.5973 52.0498 34.3241 50.7181 35.0896C49.3863 35.8552 48.0873 36.6537 46.8016 37.4968C46.7013 37.6351 46.5952 37.7638 46.4852 37.9079C47.1369 37.3368 47.8694 36.8357 48.6172 36.4043C50.0492 35.566 51.5714 34.8577 53.0917 34.1899C54.6563 33.5089 56.2612 32.8957 57.8815 32.3521C59.5017 31.8085 61.1487 31.354 62.8207 30.9632C64.4926 30.5725 66.1799 30.2514 67.8901 30.0347C68.0942 30.0051 68.3138 29.9795 68.5237 29.9596C68.4567 29.7372 68.3068 29.5508 68.1395 29.4011ZM49.6319 37.6503C51.1789 37.1371 52.747 36.7033 54.3208 36.2791C55.8946 35.8549 57.4645 35.4461 59.0365 34.9968C60.593 34.5436 62.1361 34.0458 63.6409 33.4397C64.3885 33.1395 65.1284 32.8046 65.8356 32.4365C66.1844 32.2554 66.5429 32.0685 66.8802 31.868C67.2328 31.6714 67.5952 31.4691 67.9094 31.2298C68.0289 31.1457 68.1427 31.0518 68.2545 30.9328C67.1886 31.619 65.9767 32.1035 64.7727 32.4914C63.2989 32.9742 61.7888 33.308 60.269 33.6476C58.6992 33.9907 57.1312 34.359 55.6035 34.8607C53.9332 35.4078 52.3224 36.0769 50.7327 36.8253C49.6189 37.3432 48.5321 37.8845 47.4471 38.4508C48.16 38.1582 48.8902 37.8945 49.6319 37.6503ZM49.9874 36.8881C51.5617 36.1357 53.161 35.4472 54.8044 34.8767C56.3495 34.3384 57.9406 33.9433 59.5297 33.5888C61.0495 33.2492 62.5711 32.9347 64.0641 32.5061C65.532 32.0793 66.9751 31.523 68.2837 30.7187C68.3608 30.6729 68.4379 30.6271 68.515 30.5812C68.544 30.4984 68.573 30.4156 68.5867 30.3288C68.6003 30.242 68.5889 30.157 68.5678 30.0777C66.8942 30.312 65.2147 30.6023 63.5716 30.9758C61.9131 31.3454 60.2757 31.7943 58.669 32.3167C57.0373 32.8409 55.4459 33.4329 53.8659 34.11C52.3341 34.7584 50.8176 35.4764 49.3626 36.2759C48.0386 37.0106 46.7394 37.8748 45.7402 39.046C47.1393 38.306 48.5538 37.5699 49.9874 36.8881ZM52.4017 38.3382C50.6523 38.9717 49.1312 40.1646 47.7487 41.3931C46.3989 42.5891 45.1857 43.9268 44.0955 45.3619C43.0111 46.8067 42.0748 48.3471 41.2809 49.9733C41.1843 50.1619 41.1031 50.3544 41.0123 50.5527C41.3462 50.0394 41.6859 49.5357 42.0468 49.0458C42.9441 47.7909 43.8895 46.573 44.8984 45.3961C45.9073 44.2192 46.9604 43.0947 48.0673 42.0168C49.1511 40.9659 50.3041 39.9656 51.6262 39.2058C52.7209 38.5681 53.9117 38.07 55.1674 37.9005C54.2221 37.8461 53.2783 38.0137 52.4017 38.3382ZM57.2749 38.4837C57.0672 38.3318 56.8228 38.2278 56.5803 38.149C56.3013 38.0526 56.0049 37.9928 55.7142 37.9426C54.4162 38.0848 53.1793 38.5054 52.0442 39.1409C50.7395 39.8642 49.5903 40.8491 48.52 41.8788C46.3371 43.9768 44.3424 46.3038 42.569 48.7615C42.0673 49.4533 41.5867 50.1587 41.1273 50.8778C40.888 51.243 40.6641 51.6123 40.4401 51.9815C40.4266 52.0026 40.4227 52.018 40.4092 52.0392C40.388 52.0912 40.3763 52.1374 40.3493 52.1797C40.6504 51.699 40.9824 51.2263 41.3104 50.7689C41.6135 50.3133 41.9165 49.8577 42.2407 49.4158C43.2113 48.0649 44.2512 46.7646 45.3834 45.5537C46.4693 44.3966 47.6417 43.3192 48.914 42.366C50.1246 41.4626 51.4218 40.6389 52.7919 39.9817C54.162 39.3246 55.5934 38.8145 57.0804 38.5075C57.1459 38.5079 57.2152 38.493 57.2749 38.4837ZM57.7764 39.1955C57.7689 39.0294 57.6825 38.884 57.5826 38.7598C57.5269 38.688 57.4672 38.6317 57.3922 38.5713C57.111 38.6467 56.8182 38.7027 56.5274 38.7839C56.1671 38.88 55.803 38.9915 55.4486 39.0974C54.7261 39.3301 54.0171 39.6074 53.3311 39.9234C51.9534 40.5458 50.6467 41.3096 49.4149 42.1993C48.16 43.116 46.9741 44.1489 45.8902 45.2655C44.9934 46.1921 44.1601 47.1598 43.3709 48.1798C43.938 47.5541 44.5166 46.9478 45.1279 46.3745C46.2695 45.2892 47.5034 44.2932 48.7949 43.3942C50.0864 42.4952 51.451 41.6971 52.8635 41.0016C54.2817 40.3157 55.7518 39.7171 57.2717 39.3119C57.4451 39.2744 57.603 39.233 57.7764 39.1955C57.7667 39.2012 57.7667 39.2012 57.7764 39.1955ZM40.4565 52.6013C41.5276 51.0464 42.8891 49.7385 44.385 48.613C45.9427 47.4377 47.6194 46.4408 49.2981 45.469C50.9671 44.503 52.6534 43.566 54.2321 42.47C55.0167 41.9248 55.7782 41.3409 56.4955 40.7046C56.8541 40.3865 57.207 40.0586 57.533 39.7074C57.6255 39.5999 57.722 39.477 57.7415 39.3343C57.0402 39.5807 56.3274 39.8077 55.6377 40.0735C54.9036 40.3526 54.1868 40.6607 53.4719 40.9939C52.0576 41.6643 50.695 42.4219 49.4016 43.2958C48.1025 44.1601 46.8667 45.1309 45.7174 46.1814C44.5682 47.2319 43.4862 48.3736 42.5157 49.5933C41.6784 50.6419 40.9161 51.751 40.2326 52.9049C40.3156 52.8031 40.3832 52.6974 40.4565 52.6013ZM34.184 39.7916C34.3074 40.8986 34.4963 42.0061 34.7642 43.0928C34.6213 40.8562 34.725 38.6174 35.0981 36.415C35.5373 33.8193 36.3231 31.2798 37.4282 28.9046C37.7354 28.2367 38.0734 27.5767 38.4229 26.9361C38.6141 26.5994 38.8052 26.2628 39.0022 25.9359C37.9697 27.4023 37.0854 28.9642 36.3684 30.6102C35.5587 32.495 34.9625 34.4758 34.5858 36.4967C34.4828 37.0694 34.3953 37.6461 34.3328 38.221C34.3034 38.5007 34.2703 38.7959 34.2467 39.0854C34.229 39.3188 34.2325 39.566 34.184 39.7916ZM39.0626 25.4671C38.6328 25.7095 38.2856 26.1127 37.95 26.4696C36.54 28.0031 35.5224 29.8672 34.8858 31.8458C34.2124 33.9381 33.9759 36.151 34.0707 38.3506C34.0764 38.4259 34.082 38.5012 34.078 38.5823C34.0839 38.5264 34.084 38.4607 34.0995 38.399C34.1562 37.8801 34.234 37.3747 34.3214 36.8637C34.4963 35.8416 34.7271 34.8257 35.0251 33.8353C35.6117 31.8602 36.4446 29.9485 37.4679 28.1597C38.0143 27.1921 38.6146 26.2712 39.2784 25.3913C39.209 25.4063 39.1358 25.4367 39.0626 25.4671ZM39.5268 25.3485C39.2353 25.8235 38.9381 26.2888 38.662 26.7677C38.3415 27.3255 38.0421 27.897 37.7639 28.4821C37.194 29.6734 36.7069 30.8943 36.3082 32.1543C35.513 34.6338 35.0487 37.2314 34.9272 39.835C34.8613 41.3038 34.9014 42.7751 35.0666 44.2377C35.1413 44.4949 35.2102 44.7425 35.2849 44.9998C35.8998 47.0212 36.6727 49.0013 37.3223 51.0153C37.5331 51.6769 37.74 52.354 37.9064 53.0288C37.7977 52.3852 37.6889 51.7416 37.5898 51.0923C37.262 48.9395 36.9746 46.7888 36.8067 44.6196C36.6348 42.4659 36.567 40.2897 36.657 38.1376C36.7489 36.0107 36.9929 33.8982 37.4313 31.8276C37.8697 29.757 38.5083 27.7378 39.3971 25.8323C39.4705 25.6706 39.5497 25.5186 39.6289 25.3666C39.5923 25.349 39.5519 25.3468 39.5268 25.3485ZM39.752 25.3983C38.95 27.2522 38.2827 29.1573 37.8214 31.1235C37.3368 33.1823 37.0581 35.3022 36.9296 37.4115C36.8069 39.5306 36.8363 41.6641 36.9812 43.7945C37.1299 45.9751 37.3884 48.1429 37.7162 50.2958C37.9392 51.7896 38.191 53.2662 38.4583 54.7468C38.418 53.4067 38.3219 52.0604 38.2066 50.7256C38.0306 48.7186 37.8239 46.7036 37.7828 44.682C37.7379 42.6101 37.8644 40.5413 38.0968 38.4751C38.333 36.3935 38.6501 34.3163 38.9518 32.2352C39.2574 30.1386 39.5476 28.038 39.8725 25.93C39.892 25.7872 39.9172 25.6542 39.9425 25.5211C39.8848 25.4899 39.8251 25.4335 39.752 25.3983ZM40.0539 25.6647C39.814 27.6304 39.5182 29.59 39.2321 31.5439C38.9401 33.6193 38.6268 35.6811 38.3752 37.7588C38.1274 39.821 37.9412 41.8991 37.9822 43.9863C38.0176 45.9982 38.2031 47.9996 38.3733 49.9969C38.4736 51.1308 38.5739 52.2648 38.6395 53.4062C38.6456 53.1533 38.6672 52.9044 38.6734 52.6515C38.6765 51.889 38.6796 51.1264 38.6981 50.3678C38.7513 48.395 38.8699 46.4227 39.0193 44.4583C39.1669 42.4688 39.3356 40.493 39.5043 38.5171C39.6729 36.5412 39.8359 34.5557 39.9641 32.5777C40.0924 30.5996 40.1745 28.6097 40.2373 26.6312C40.2433 26.444 40.2455 26.2722 40.2516 26.0849C40.219 25.9863 40.1768 25.8933 40.1192 25.7964C40.1 25.7422 40.077 25.7035 40.0539 25.6647ZM40.5448 35.5507C40.8063 33.3361 40.96 31.0937 40.7517 28.8567C40.7045 28.2946 40.6225 27.7399 40.5252 27.1814C40.4794 26.9069 40.4279 26.6228 40.3513 26.3404C40.3735 28.1766 40.309 29.9987 40.2099 31.8282C40.1066 33.8045 39.9476 35.7746 39.7789 37.7505C39.6159 39.736 39.4473 41.7119 39.294 43.6917C39.2388 44.4984 39.1836 45.305 39.1438 46.1156C39.2691 44.8345 39.4097 43.5573 39.5754 42.2784C39.8754 40.0408 40.2717 37.8116 40.5448 35.5507ZM55.3525 47.5355C55.2429 47.4826 55.1293 47.4452 55.0061 47.4135C54.8194 47.4065 54.6287 47.4149 54.4342 47.4388C54.0491 47.471 53.6677 47.5535 53.2882 47.6611C52.5292 47.8762 51.8047 48.2152 51.1128 48.5872C49.787 49.2968 48.5245 50.1129 47.3081 51.0067C46.1109 51.8889 44.9714 52.8681 43.9069 53.9075C42.8327 54.9528 41.8239 56.064 40.9113 57.2493C40.8515 57.3242 40.7917 57.3991 40.7473 57.478C41.6212 56.4469 42.57 55.4762 43.5747 54.5772C44.7065 53.5633 45.9172 52.6599 47.1932 51.8226C48.4595 50.991 49.795 50.2756 51.1824 49.6475C52.5601 49.0252 53.9858 48.5054 55.4518 48.1191C55.5558 48.0966 55.6694 48.0684 55.7734 48.0459C55.7064 47.8235 55.5777 47.6508 55.3525 47.5355ZM55.4996 49.5597C55.5382 49.4711 55.5826 49.3923 55.6155 49.294C55.7605 48.9455 55.8786 48.508 55.7945 48.1252C55.1549 48.3219 54.5096 48.5088 53.8661 48.7209C53.1494 48.9633 52.4404 49.2406 51.7429 49.5373C50.3633 50.1345 49.0278 50.8498 47.7441 51.6524C46.4701 52.4492 45.2595 53.3526 44.1161 54.3472C42.9766 55.3263 41.9197 56.4006 40.9378 57.5352C40.8086 57.6908 40.6793 57.8463 40.5501 58.0018C40.606 57.9424 40.6619 57.8829 40.7275 57.8177C41.1518 57.3686 41.6088 56.9527 42.0889 56.5755C43.076 55.7787 44.1476 55.1022 45.2827 54.5323C46.4948 53.9166 47.7549 53.4035 49.0438 52.9389C49.6911 52.7114 50.3442 52.4936 51.003 52.2855C51.6369 52.0792 52.2764 51.8826 52.8853 51.6124C53.5385 51.3289 54.161 50.9719 54.6836 50.4907C55.021 50.2246 55.2737 49.9038 55.4996 49.5597ZM43.724 56.364C45.2924 55.6676 46.9261 55.1685 48.5386 54.5901C49.999 54.0629 51.4325 53.4467 52.7202 52.5631C53.5144 52.0122 54.2798 51.3473 54.8703 50.5634C54.5039 50.9124 54.0875 51.1993 53.6481 51.4474C52.4783 52.0904 51.1646 52.4256 49.9085 52.8576C47.3616 53.7292 44.849 54.7902 42.686 56.4172C42.1289 56.8402 41.5948 57.302 41.103 57.7911C41.0047 57.889 40.9024 58.0022 40.8098 58.1097C41.6928 57.4011 42.6873 56.8361 43.724 56.364ZM40.4469 57.4992C41.373 56.2928 42.3645 55.1524 43.4368 54.0821C44.5091 53.0118 45.6582 52.0269 46.8631 51.1138C48.0737 50.2104 49.3401 49.3788 50.6641 48.6441C51.645 48.1002 52.703 47.5762 53.8297 47.3653C53.564 47.3791 53.304 47.4025 53.0401 47.4413C51.4127 47.6875 49.8751 48.3262 48.4739 49.1724C46.986 50.0702 45.6403 51.185 44.3368 52.3272C43.0238 53.4752 41.7183 54.6579 40.6071 56.0137C39.8142 56.9835 39.1308 58.0718 38.665 59.2407C38.6028 59.6187 38.5444 59.9812 38.4668 60.3553C39.0922 59.367 39.7407 58.4175 40.4469 57.4992ZM30.0036 47.1954C29.8475 47.2619 29.7433 47.4157 29.6641 47.5677C29.6371 47.61 29.6158 47.662 29.6042 47.7083C29.5558 47.8682 29.5074 48.0281 29.4745 48.192C29.3833 48.5872 29.3288 49 29.2992 49.411C29.2422 50.1925 29.266 50.9785 29.3341 51.7511C29.4799 53.2908 29.8318 54.826 30.3937 56.2757C30.9633 57.7601 31.7313 59.1397 32.5148 60.5232C33.3501 61.994 34.1757 63.4705 35.011 64.9412C35.6735 66.1213 36.3552 67.2899 37.0331 68.4739C36.807 67.7426 36.5578 67.0383 36.2874 66.3202C35.7332 64.8397 35.0905 63.3857 34.4535 61.9413C33.8107 60.4872 33.1679 59.0332 32.5887 57.5544C32.0019 56.0409 31.4883 54.4969 31.123 52.9173C30.7232 51.2138 30.4468 49.4764 30.2011 47.7469C30.1763 47.5517 30.1574 47.3663 30.1481 47.1751C30.0922 47.1689 30.0479 47.1821 30.0036 47.1954ZM36.2966 60.4783C35.9161 58.7633 35.4219 57.0766 34.8045 55.4239C34.1928 53.7808 33.4579 52.1717 32.6266 50.6199C32.3463 50.1046 32.0467 49.6007 31.7471 49.0968C32.0293 49.6372 32.2826 50.1949 32.5012 50.76C33.0784 52.2793 33.4591 53.863 33.8591 55.4351C34.0619 56.2589 34.2743 57.0769 34.5311 57.8817C34.7878 58.6865 35.0889 59.4781 35.3996 60.2639C35.927 61.5898 36.4988 62.9025 36.9376 64.2548C36.7721 62.9892 36.5815 61.7254 36.2966 60.4783ZM37.3603 68.5416C37.3391 68.528 37.3276 68.5086 37.32 68.4738C37.3048 68.3385 37.2761 68.2245 37.2705 68.0835C37.2707 67.9522 37.2652 67.8112 37.275 67.6742C37.2731 67.6491 37.2712 67.624 37.2751 67.6086C37.2393 67.1315 37.188 66.6504 37.1368 66.1694C37.1311 66.094 37.1255 66.0187 37.1102 65.9491C37.0796 65.8099 37.0432 65.661 37.0127 65.5218C36.605 63.9148 35.972 62.3894 35.364 60.8622C35.0552 60.1015 34.7618 59.3447 34.4973 58.5707C34.2309 57.7717 34.0049 56.9748 33.7982 56.1664C33.3983 54.5943 33.0619 52.9974 32.5482 51.4534C32.0749 50.043 31.4339 48.6796 30.5288 47.4864C30.4558 47.3856 30.3732 47.2904 30.2905 47.1953C30.2597 47.1874 30.2289 47.1795 30.1981 47.1715C30.3188 47.572 30.3663 48.0028 30.4369 48.4067C30.5094 48.8358 30.5819 49.2649 30.6544 49.6939C30.8051 50.5618 30.9713 51.4336 31.1721 52.2978C31.5489 53.8969 32.024 55.4638 32.6127 57.0024C33.1823 58.4869 33.8212 59.9564 34.4736 61.4047C35.1163 62.8588 35.7687 64.3071 36.3383 65.7916C36.7065 66.74 37.0554 67.6998 37.3504 68.6786C37.3659 68.6169 37.3583 68.5821 37.3603 68.5416ZM35.0794 65.517C34.2423 64.0211 33.3954 62.531 32.5486 61.0409C31.7537 59.6379 30.9587 58.235 30.3487 56.7484C29.7675 55.3101 29.3617 53.7939 29.1908 52.256C29.0844 51.375 29.03 50.4499 29.0988 49.5564C29.0618 49.8014 29.0306 50.056 29.009 50.3049C28.919 51.2504 28.9406 52.2081 29.0122 53.1623C29.1348 54.7944 29.4481 56.4182 29.9135 57.9908C30.379 59.5634 31.012 61.0888 31.7896 62.5283C32.5729 63.9775 33.5104 65.335 34.5752 66.5775C35.5458 67.7055 36.7303 68.7325 37.4099 70.0729C37.41 70.0073 37.4158 69.9513 37.4256 69.88C37.4026 69.7756 37.3643 69.6672 37.3414 69.5628C36.5694 68.1986 35.8341 66.8521 35.0794 65.517ZM48.2374 58.822C47.96 58.882 47.6922 59.0019 47.4243 59.1218C46.9022 59.3404 46.3973 59.5881 45.9001 59.8706C43.9054 60.991 42.1546 62.5434 40.7981 64.3861C40.1266 65.2968 39.5455 66.2719 39.0644 67.3055C38.6355 68.2294 38.3143 69.181 38.0663 70.1679C38.0698 70.4151 38.0829 70.6565 38.0864 70.9036C38.1674 70.7767 38.2485 70.6498 38.3296 70.5229C38.5423 69.9374 38.7801 69.3501 39.039 68.7765C39.5607 67.6138 40.1709 66.4902 40.8658 65.4213C42.1513 63.4373 43.7216 61.5593 45.6743 60.2147C46.1909 59.8551 46.7363 59.544 47.3008 59.287C47.744 59.0891 48.2084 58.9048 48.6938 58.7999C48.5301 58.766 48.3703 58.7823 48.2374 58.822ZM49.1573 59.1407C49.1305 59.0518 49.0844 58.9742 49.0036 58.9042C48.9767 58.8809 48.9555 58.8672 48.9344 58.8536C48.4509 58.9836 47.9731 59.1234 47.5107 59.3328C47.0135 59.5496 46.5298 59.811 46.0788 60.1054C45.1382 60.7171 44.284 61.4741 43.5202 62.2955C41.8287 64.1012 40.4428 66.2236 39.3937 68.4737C39.2121 68.8703 39.0401 69.2611 38.8836 69.6558C39.092 69.3483 39.3004 69.0407 39.5089 68.7332C40.1496 67.8145 40.848 66.9271 41.5695 66.0784C43.0202 64.3503 44.6266 62.7525 46.3542 61.2926C46.842 60.8845 47.3356 60.4861 47.8445 60.0917C48.097 59.9023 48.3496 59.7128 48.6118 59.5175C48.7833 59.3893 48.9645 59.2553 49.1573 59.1407ZM48.9271 59.8285C49.0274 59.6901 49.1259 59.5267 49.1839 59.361C49.1916 59.3302 49.184 59.2954 49.1821 59.2703C48.8158 59.5536 48.4322 59.8079 48.0659 60.0912C47.6283 60.4301 47.1811 60.7747 46.755 61.133C45.8931 61.8553 45.064 62.6105 44.2675 63.3989C43.4806 64.1814 42.7169 65.0028 41.9954 65.8514C41.4128 66.5388 40.8514 67.2399 40.3169 67.9642C40.6737 67.5553 41.0517 67.1601 41.4355 66.7745C43.1519 65.0983 45.1219 63.7172 46.8671 62.0894C47.3607 61.6254 47.8332 61.1477 48.2788 60.6467C48.5007 60.3837 48.7321 60.1149 48.9271 59.8285ZM39.3886 70.5491C40.2663 69.5026 41.3671 68.6776 42.4524 67.8487C43.5089 67.037 44.5212 66.1729 45.4392 65.1942C46.3342 64.2424 47.1272 63.207 47.8144 62.1032C48.1657 61.5534 48.4901 60.9801 48.7837 60.399C48.832 60.3047 48.8976 60.1739 48.9633 60.043C48.8861 60.1545 48.8032 60.2563 48.7298 60.3523C48.3614 60.8075 47.9563 61.245 47.5397 61.6632C46.6738 62.5322 45.7464 63.3196 44.8036 64.1031C42.97 65.6261 41.0749 67.1332 39.6566 69.0913C38.9908 70.0117 38.452 71.0141 38.1268 72.1124C38.1285 72.2688 38.1359 72.4349 38.1473 72.5856C38.4334 71.8383 38.8754 71.1558 39.3886 70.5491Z" fill="white"/>
</g>
<defs>
<clipPath id="clip0_2_9">
<rect width="71" height="67" fill="white" transform="translate(0 36.2839) rotate(-30.7332)"/>
</clipPath>
</defs>
</svg>
